<svg width="291" height="124" viewBox="0 0 291 124" fill="none" xmlns="http://www.w3.org/2000/svg">
<path d="M88.1854 24.5729C93.1112 29.2416 96.213 36.0701 96.213 43.6743C96.213 69.1477 72.4925 83.6519 48.8008 109.125C25.1089 83.6519 1.41406 69.1477 1.41406 43.6743C1.41406 29.6115 12.0287 18.2009 25.1089 18.2009C36.9534 18.2009 42.8771 24.57 48.8008 37.3052C54.7245 24.57 60.6454 18.2009 72.4925 18.2009C78.5123 18.2009 84.0063 20.6053 88.1854 24.5729Z" fill="#EF3E5C"/>
<path d="M6.53898 45.2378C6.53898 31.1751 17.1536 19.7644 30.2338 19.7644C31.8579 19.7644 33.3675 19.8888 34.7844 20.128C32.029 18.8453 28.8678 18.2015 25.1089 18.2015C12.0287 18.2015 1.41406 29.6122 1.41406 43.6749C1.41406 69.1483 25.1089 83.6526 48.8008 109.126C49.4059 108.475 50.011 107.834 50.6158 107.197C28.0766 83.8399 6.53898 69.5239 6.53898 45.2378Z" fill="#E42A53"/>
<path d="M44.9689 67.8589C44.5863 67.8589 44.2052 67.696 43.9264 67.3753C43.3987 66.768 43.4375 65.8244 44.0132 65.268L105.504 5.7979C106.079 5.24124 106.974 5.28211 107.501 5.88979C108.029 6.49716 107.99 7.44074 107.414 7.99711L45.9235 67.4669C45.6526 67.7294 45.3102 67.8589 44.9689 67.8589Z" fill="#D30045"/>
<path d="M103.899 24.609C103.786 24.609 103.67 24.5947 103.555 24.5643L93.3078 21.8615C92.8014 21.7279 92.4058 21.3105 92.2791 20.7759L89.7174 9.96187C89.5279 9.16267 89.9885 8.35274 90.7463 8.15317C91.5021 7.9527 92.2712 8.43925 92.4607 9.23845L94.8168 19.1841L104.241 21.67C104.998 21.8696 105.459 22.6795 105.269 23.4787C105.109 24.1568 104.532 24.609 103.899 24.609Z" fill="#D30045"/>
<path d="M111.587 16.4978C111.474 16.4978 111.358 16.4835 111.243 16.453L100.994 13.7503C100.488 13.6169 100.093 13.2014 99.9656 12.6686L99.8776 12.3016L97.4027 1.85393C97.2132 1.05474 97.6738 0.244801 98.4316 0.0452255C99.1868 -0.155543 99.9568 0.331015 100.146 1.13051L102.501 11.0732L111.929 13.5591C112.687 13.7586 113.147 14.5686 112.958 15.3678C112.798 16.0455 112.221 16.4978 111.587 16.4978Z" fill="#D30045"/>
<path d="M1.41349 108.407C1.21754 108.407 1.02018 108.364 0.834407 108.276C0.326581 108.035 0 107.502 0 106.915V96.101C0 95.277 0.632804 94.6094 1.41377 94.6094C2.19445 94.6094 2.82754 95.277 2.82754 96.101V103.593L23.5331 84.1748C24.1164 83.6274 25.0104 83.6835 25.529 84.2986C26.0479 84.9143 25.9953 85.8573 25.4117 86.4047L2.35308 108.03C2.0887 108.277 1.75336 108.407 1.41349 108.407Z" fill="#E42A53"/>
<path d="M11.6636 108.406H1.41377C0.632804 108.406 0 107.739 0 106.915C0 106.091 0.632804 105.423 1.41377 105.423H11.6636C12.4443 105.423 13.0774 106.091 13.0774 106.915C13.0774 107.739 12.444 108.406 11.6636 108.406Z" fill="#E42A53"/>
<path d="M11.6626 51.6396C10.945 51.6396 10.3303 51.0657 10.2573 50.2963C9.41585 41.4183 11.1604 34.8837 15.4425 30.8743C22.0275 24.7083 32.0447 26.9678 32.4677 27.0668C33.2297 27.2455 33.7106 28.0423 33.541 28.8463C33.3719 29.65 32.6175 30.1559 31.8561 29.9793C31.7664 29.9587 22.8006 27.9582 17.3081 33.1161C13.7513 36.4558 12.326 42.1364 13.071 49.9995C13.1488 50.8192 12.5821 51.5501 11.8048 51.6322C11.7571 51.6369 11.7095 51.6396 11.6626 51.6396Z" fill="#E42A53"/>
<path d="M90.56 105.256C90.176 105.256 89.9093 105.085 89.76 104.744C89.6107 104.403 89.536 103.944 89.536 103.368C89.536 102.941 89.568 102.461 89.632 101.928L91.68 83.24C92.4907 83.1547 93.344 83.08 94.24 83.016C95.1573 82.952 96.1387 82.92 97.184 82.92C99.1253 82.92 100.683 83.1013 101.856 83.464C103.029 83.8053 103.883 84.3387 104.416 85.064C104.949 85.7893 105.216 86.696 105.216 87.784C105.216 89.0427 104.843 90.1307 104.096 91.048C103.371 91.9653 102.411 92.7227 101.216 93.32L100.16 93.864C99.584 94.1413 99.072 94.376 98.624 94.568C98.176 94.7387 97.76 94.824 97.376 94.824C96.9707 94.824 96.5547 94.696 96.128 94.44C95.7013 94.1627 95.488 93.9067 95.488 93.672C95.488 93.48 95.5307 93.352 95.616 93.288C95.7227 93.2027 95.8613 93.1387 96.032 93.096C96.8 92.904 97.5787 92.616 98.368 92.232C99.1787 91.8267 99.8507 91.304 100.384 90.664C100.939 90.024 101.216 89.224 101.216 88.264C101.216 87.1973 100.747 86.44 99.808 85.992C98.8693 85.544 97.344 85.32 95.232 85.32L93.728 99.912C93.7067 100.125 93.6853 100.339 93.664 100.552C93.664 100.744 93.664 100.947 93.664 101.16C93.664 101.395 93.6747 101.64 93.696 101.896C93.7173 102.131 93.7387 102.365 93.76 102.6C96.2987 102.6 98.2187 102.216 99.52 101.448C100.821 100.659 101.472 99.4747 101.472 97.896C101.472 96.9147 101.205 96.0613 100.672 95.336C100.16 94.6107 99.4667 94.1093 98.592 93.832L100.8 92.68C101.845 92.936 102.731 93.3307 103.456 93.864C104.203 94.376 104.768 94.984 105.152 95.688C105.536 96.392 105.728 97.1813 105.728 98.056C105.728 99.4 105.387 100.595 104.704 101.64C104.043 102.685 103.04 103.507 101.696 104.104C100.352 104.701 98.688 105 96.704 105C96.2773 105 95.7547 105.011 95.136 105.032C94.5173 105.053 93.888 105.085 93.248 105.128C92.6293 105.171 92.064 105.203 91.552 105.224C91.0613 105.245 90.7307 105.256 90.56 105.256ZM112.933 105.48C111.098 105.48 109.669 104.947 108.645 103.88C107.642 102.792 107.141 101.203 107.141 99.112C107.141 97.7253 107.365 96.4453 107.813 95.272C108.282 94.0773 108.911 93.032 109.701 92.136C110.49 91.24 111.397 90.5467 112.421 90.056C113.466 89.544 114.565 89.288 115.717 89.288C117.551 89.288 118.949 89.832 119.909 90.92C120.89 92.008 121.381 93.6507 121.381 95.848C121.381 97.1707 121.157 98.4187 120.709 99.592C120.282 100.744 119.685 101.768 118.917 102.664C118.149 103.539 117.253 104.232 116.229 104.744C115.205 105.235 114.106 105.48 112.933 105.48ZM113.701 103.08C114.511 103.08 115.205 102.781 115.781 102.184C116.378 101.587 116.826 100.765 117.125 99.72C117.445 98.6747 117.605 97.5013 117.605 96.2C117.605 94.8133 117.391 93.7147 116.965 92.904C116.559 92.0933 115.877 91.688 114.917 91.688C114.127 91.688 113.423 91.9867 112.805 92.584C112.207 93.1813 111.738 94.0027 111.397 95.048C111.077 96.072 110.917 97.2453 110.917 98.568C110.917 100.04 111.151 101.16 111.621 101.928C112.09 102.696 112.783 103.08 113.701 103.08ZM133.678 105.32C133.443 105.32 133.262 105.213 133.134 105C133.027 104.765 132.952 104.509 132.91 104.232C132.888 103.955 132.878 103.731 132.878 103.56C132.878 103.261 132.899 102.877 132.942 102.408C132.984 101.939 133.038 101.448 133.102 100.936C133.166 100.403 133.23 99.944 133.294 99.56L133.838 96.232C133.902 95.8053 133.966 95.4107 134.03 95.048C134.094 94.664 134.126 94.2587 134.126 93.832C134.126 93.512 134.062 93.2667 133.934 93.096C133.806 92.9253 133.635 92.84 133.422 92.84C133.144 92.84 132.686 93.1067 132.046 93.64C131.406 94.1733 130.723 94.9413 129.998 95.944C129.272 96.9253 128.611 98.1093 128.014 99.496C127.438 100.883 127.064 102.429 126.894 104.136L126.062 99.4C126.702 97.544 127.416 95.976 128.206 94.696C129.016 93.416 129.838 92.3813 130.67 91.592C131.502 90.8027 132.302 90.2267 133.07 89.864C133.859 89.5013 134.552 89.32 135.15 89.32C135.79 89.32 136.302 89.4373 136.686 89.672C137.091 89.9067 137.379 90.2373 137.55 90.664C137.742 91.0693 137.838 91.5493 137.838 92.104C137.838 92.6373 137.795 93.1707 137.71 93.704C137.646 94.216 137.571 94.7493 137.486 95.304L135.95 105.32H133.678ZM124.11 105.448C123.832 105.448 123.619 105.395 123.47 105.288C123.342 105.203 123.267 104.957 123.246 104.552C123.246 104.147 123.299 103.496 123.406 102.6L124.91 89.288H127.15C127.47 89.288 127.758 89.5227 128.014 89.992C128.27 90.4613 128.398 90.9947 128.398 91.592C128.398 91.8693 128.312 92.3067 128.142 92.904C127.992 93.48 127.811 94.0987 127.598 94.76C127.384 95.4 127.192 95.9653 127.022 96.456L126.19 99.08L127.374 98.888L126.862 104.136C126.84 104.349 126.712 104.541 126.478 104.712C126.243 104.883 125.966 105.021 125.646 105.128C125.326 105.235 125.016 105.309 124.718 105.352C124.44 105.416 124.238 105.448 124.11 105.448ZM150.74 105.32C150.506 105.32 150.324 105.213 150.196 105C150.09 104.765 150.015 104.509 149.972 104.232C149.951 103.955 149.94 103.731 149.94 103.56C149.94 103.261 149.962 102.877 150.004 102.408C150.047 101.939 150.1 101.448 150.164 100.936C150.228 100.403 150.292 99.944 150.356 99.56L150.9 96.232C150.964 95.8053 151.028 95.4107 151.092 95.048C151.156 94.664 151.188 94.2587 151.188 93.832C151.188 93.512 151.124 93.2667 150.996 93.096C150.868 92.9253 150.698 92.84 150.484 92.84C150.207 92.84 149.748 93.1067 149.108 93.64C148.468 94.1733 147.786 94.9413 147.06 95.944C146.335 96.9253 145.674 98.1093 145.076 99.496C144.5 100.883 144.127 102.429 143.956 104.136L143.124 99.4C143.764 97.544 144.479 95.976 145.268 94.696C146.079 93.416 146.9 92.3813 147.732 91.592C148.564 90.8027 149.364 90.2267 150.132 89.864C150.922 89.5013 151.615 89.32 152.212 89.32C152.852 89.32 153.364 89.4373 153.748 89.672C154.154 89.9067 154.442 90.2373 154.612 90.664C154.804 91.0693 154.9 91.5493 154.9 92.104C154.9 92.6373 154.858 93.1707 154.772 93.704C154.708 94.216 154.634 94.7493 154.548 95.304L153.012 105.32H150.74ZM141.172 105.448C140.895 105.448 140.682 105.395 140.532 105.288C140.404 105.203 140.33 104.957 140.308 104.552C140.308 104.147 140.362 103.496 140.468 102.6L141.972 89.288H144.212C144.532 89.288 144.82 89.5227 145.076 89.992C145.332 90.4613 145.46 90.9947 145.46 91.592C145.46 91.8693 145.375 92.3067 145.204 92.904C145.055 93.48 144.874 94.0987 144.66 94.76C144.447 95.4 144.255 95.9653 144.084 96.456L143.252 99.08L144.436 98.888L143.924 104.136C143.903 104.349 143.775 104.541 143.54 104.712C143.306 104.883 143.028 105.021 142.708 105.128C142.388 105.235 142.079 105.309 141.78 105.352C141.503 105.416 141.3 105.448 141.172 105.448ZM158.395 105.512C158.032 105.512 157.797 105.309 157.691 104.904C157.584 104.477 157.531 104.04 157.531 103.592C157.531 102.824 157.563 102.141 157.627 101.544C157.712 100.947 157.797 100.285 157.883 99.56L159.035 89.288H161.275C161.701 89.288 161.979 89.5227 162.107 89.992C162.235 90.4613 162.299 90.9947 162.299 91.592C162.299 91.8907 162.277 92.2107 162.235 92.552C162.192 92.872 162.128 93.3733 162.043 94.056L161.435 99.272C161.307 100.381 161.189 101.309 161.083 102.056C160.976 102.803 160.891 103.443 160.827 103.976C160.763 104.509 160.699 105.021 160.635 105.512H158.395ZM161.211 87.464C160.613 87.464 160.091 87.2613 159.643 86.856C159.216 86.4507 159.003 85.9173 159.003 85.256C159.003 84.4667 159.259 83.8587 159.771 83.432C160.283 82.984 160.869 82.76 161.531 82.76C162.149 82.76 162.661 82.9413 163.067 83.304C163.493 83.6667 163.707 84.2107 163.707 84.936C163.707 85.6613 163.461 86.2693 162.971 86.76C162.48 87.2293 161.893 87.464 161.211 87.464ZM169.448 105.512C167.806 105.512 166.536 105 165.64 103.976C164.744 102.931 164.296 101.501 164.296 99.688C164.296 98.1733 164.51 96.7867 164.936 95.528C165.363 94.2693 165.96 93.1707 166.728 92.232C167.496 91.2933 168.392 90.568 169.416 90.056C170.462 89.544 171.592 89.288 172.808 89.288C174.259 89.288 175.368 89.5973 176.136 90.216C176.904 90.8347 177.288 91.72 177.288 92.872C177.288 94.0453 176.894 95.0693 176.104 95.944C175.336 96.8187 174.216 97.5653 172.744 98.184C171.294 98.8027 169.555 99.3253 167.528 99.752L167.112 97.832C168.286 97.6827 169.363 97.4267 170.344 97.064C171.326 96.7013 172.115 96.2213 172.712 95.624C173.31 95.0053 173.608 94.28 173.608 93.448C173.608 92.872 173.491 92.4347 173.256 92.136C173.043 91.8373 172.648 91.688 172.072 91.688C171.198 91.688 170.451 92.008 169.832 92.648C169.235 93.288 168.776 94.12 168.456 95.144C168.158 96.168 168.008 97.256 168.008 98.408C168.008 99.9653 168.243 101.011 168.712 101.544C169.203 102.056 169.918 102.312 170.856 102.312C171.838 102.312 172.691 102.163 173.416 101.864C174.163 101.544 174.803 101.213 175.336 100.872C175.507 100.765 175.656 100.68 175.784 100.616C175.912 100.552 176.019 100.52 176.104 100.52C176.211 100.52 176.296 100.563 176.36 100.648C176.424 100.733 176.456 100.829 176.456 100.936C176.456 101.32 176.286 101.768 175.944 102.28C175.603 102.792 175.112 103.293 174.472 103.784C173.854 104.275 173.118 104.68 172.264 105C171.411 105.341 170.472 105.512 169.448 105.512ZM202.712 105.48C202.499 105.48 202.243 105.405 201.944 105.256C201.667 105.128 201.283 104.883 200.792 104.52C200.323 104.136 199.726 103.581 199 102.856C198.275 102.109 197.368 101.149 196.28 99.976L191.576 94.824C190.851 94.0133 190.243 93.2987 189.752 92.68C189.262 92.04 188.888 91.4 188.632 90.76C188.398 90.12 188.28 89.3947 188.28 88.584C188.28 86.8347 188.867 85.4267 190.04 84.36C191.235 83.272 192.867 82.728 194.936 82.728C197.134 82.728 198.712 83.176 199.672 84.072C200.632 84.9467 201.112 86.088 201.112 87.496C201.112 88.328 200.92 89.1387 200.536 89.928C200.174 90.696 199.683 91.4 199.064 92.04C198.446 92.68 197.784 93.224 197.08 93.672C196.376 94.12 195.683 94.44 195 94.632L194.04 93.032C194.979 92.3707 195.768 91.592 196.408 90.696C197.07 89.8 197.4 88.872 197.4 87.912C197.4 87.1013 197.176 86.4613 196.728 85.992C196.302 85.5227 195.651 85.288 194.776 85.288C193.923 85.288 193.219 85.5227 192.664 85.992C192.131 86.4613 191.864 87.1653 191.864 88.104C191.864 88.808 192.099 89.576 192.568 90.408C193.059 91.24 193.646 92.0187 194.328 92.744L200.536 99.368C201.411 100.285 202.254 101.021 203.064 101.576C203.896 102.131 204.824 102.621 205.848 103.048C206.083 103.133 206.318 103.229 206.552 103.336C206.808 103.421 206.936 103.549 206.936 103.72C206.936 103.891 206.766 104.083 206.424 104.296C206.104 104.488 205.699 104.68 205.208 104.872C204.739 105.043 204.27 105.181 203.8 105.288C203.331 105.416 202.968 105.48 202.712 105.48ZM192.44 93.096L193.208 94.472C192.568 94.6213 191.992 94.9307 191.48 95.4C190.968 95.848 190.552 96.392 190.232 97.032C189.934 97.672 189.784 98.3547 189.784 99.08C189.784 100.275 190.147 101.203 190.872 101.864C191.619 102.525 192.579 102.856 193.752 102.856C194.968 102.856 196.067 102.643 197.048 102.216C198.03 101.789 198.851 101.267 199.512 100.648C200.174 100.029 200.632 99.4533 200.888 98.92C201.272 98.1307 201.496 97.416 201.56 96.776C201.646 96.1147 201.688 95.528 201.688 95.016C201.688 94.4827 201.752 94.024 201.88 93.64C201.987 93.3413 202.243 93.096 202.648 92.904C203.054 92.712 203.491 92.5733 203.96 92.488C204.43 92.4027 204.782 92.36 205.016 92.36C205.166 92.36 205.283 92.4133 205.368 92.52C205.454 92.6053 205.496 92.7333 205.496 92.904C205.496 94.6533 205.155 96.296 204.472 97.832C203.79 99.3467 202.851 100.669 201.656 101.8C200.483 102.931 199.15 103.816 197.656 104.456C196.163 105.096 194.616 105.416 193.016 105.416C190.734 105.416 188.942 104.947 187.64 104.008C186.36 103.048 185.72 101.565 185.72 99.56C185.72 98.6 185.934 97.7467 186.36 97C186.787 96.232 187.342 95.5707 188.024 95.016C188.707 94.4613 189.432 94.024 190.2 93.704C190.99 93.384 191.736 93.1813 192.44 93.096ZM225.085 105.512C223.293 105.512 221.725 105.16 220.381 104.456C219.059 103.731 218.024 102.653 217.277 101.224C216.531 99.7947 216.157 98.0347 216.157 95.944C216.157 94.024 216.456 92.264 217.053 90.664C217.672 89.0427 218.536 87.6453 219.645 86.472C220.755 85.2773 222.077 84.36 223.613 83.72C225.149 83.0587 226.856 82.728 228.733 82.728C230.483 82.728 231.795 82.92 232.669 83.304C233.544 83.6667 233.981 84.328 233.981 85.288C233.981 85.8 233.885 86.2373 233.693 86.6C233.523 86.9627 233.331 87.144 233.117 87.144C232.925 87.144 232.701 87.08 232.445 86.952C232.211 86.824 231.944 86.6853 231.645 86.536C231.133 86.28 230.568 86.0133 229.949 85.736C229.352 85.4373 228.552 85.288 227.549 85.288C226.248 85.288 225.053 85.7147 223.965 86.568C222.899 87.4213 222.035 88.6053 221.373 90.12C220.733 91.6133 220.413 93.3627 220.413 95.368C220.413 97.0533 220.659 98.4613 221.149 99.592C221.661 100.723 222.333 101.565 223.165 102.12C223.997 102.675 224.904 102.952 225.885 102.952C226.696 102.952 227.421 102.803 228.061 102.504C228.701 102.184 229.256 101.821 229.725 101.416C230.216 101.011 230.653 100.659 231.037 100.36C231.421 100.04 231.763 99.88 232.061 99.88C232.296 99.88 232.488 99.9333 232.637 100.04C232.808 100.147 232.893 100.371 232.893 100.712C232.893 101.544 232.541 102.323 231.837 103.048C231.133 103.773 230.195 104.371 229.021 104.84C227.848 105.288 226.536 105.512 225.085 105.512ZM236.467 105.448C236.083 105.448 235.784 105.213 235.571 104.744C235.358 104.275 235.262 103.731 235.283 103.112C235.304 102.387 235.368 101.523 235.475 100.52C235.582 99.5173 235.688 98.5253 235.795 97.544L236.691 89.992C236.819 89.032 236.851 88.1787 236.787 87.432C236.723 86.6853 236.638 86.024 236.531 85.448C236.424 84.872 236.371 84.3813 236.371 83.976C236.371 83.7413 236.552 83.5387 236.915 83.368C237.299 83.176 237.736 83.0267 238.227 82.92C238.718 82.792 239.134 82.728 239.475 82.728C239.838 82.728 240.158 82.9947 240.435 83.528C240.712 84.04 240.851 84.6373 240.851 85.32C240.851 85.4693 240.83 85.8853 240.787 86.568C240.744 87.2507 240.659 88.0293 240.531 88.904L239.507 96.264C239.294 97.8 239.144 99.336 239.059 100.872C238.974 102.387 238.856 103.912 238.707 105.448H236.467ZM247.127 112.072C246.209 112.072 245.399 111.923 244.695 111.624C243.991 111.347 243.436 110.888 243.031 110.248C242.625 109.608 242.423 108.755 242.423 107.688C242.423 107.475 242.455 107.325 242.519 107.24C242.604 107.176 242.689 107.144 242.775 107.144C242.881 107.144 243.009 107.187 243.159 107.272C243.308 107.357 243.521 107.485 243.799 107.656C244.183 107.912 244.62 108.179 245.111 108.456C245.623 108.755 246.167 109.011 246.743 109.224C247.319 109.437 247.884 109.544 248.439 109.544C248.993 109.544 249.505 109.363 249.975 109C250.444 108.659 250.881 108.051 251.287 107.176C251.713 106.301 252.119 105.096 252.503 103.56L254.295 96.264L254.487 96.232C253.697 98.3227 252.78 100.051 251.735 101.416C250.711 102.76 249.665 103.763 248.599 104.424C247.553 105.064 246.604 105.384 245.751 105.384C244.855 105.384 244.193 105.139 243.767 104.648C243.34 104.157 243.127 103.475 243.127 102.6C243.127 102.173 243.148 101.704 243.191 101.192C243.255 100.68 243.351 99.88 243.479 98.792L244.663 89.288H246.903C247.265 89.288 247.543 89.5013 247.735 89.928C247.927 90.3333 248.023 90.8347 248.023 91.432C248.023 91.8587 248.001 92.2427 247.959 92.584C247.916 92.904 247.852 93.2773 247.767 93.704C247.703 94.1093 247.607 94.696 247.479 95.464L247.031 98.216C246.945 98.8133 246.871 99.3467 246.807 99.816C246.764 100.264 246.743 100.637 246.743 100.936C246.743 101.384 246.785 101.725 246.871 101.96C246.977 102.173 247.201 102.28 247.543 102.28C247.905 102.28 248.321 102.045 248.791 101.576C249.281 101.107 249.783 100.499 250.295 99.752C250.807 99.0053 251.276 98.2053 251.703 97.352C252.151 96.4987 252.513 95.6773 252.791 94.888C253.068 94.0773 253.207 93.4053 253.207 92.872C253.207 92.5093 253.175 92.1253 253.111 91.72C253.047 91.2933 253.015 90.92 253.015 90.6C253.015 90.344 253.217 90.12 253.623 89.928C254.049 89.7147 254.519 89.5547 255.031 89.448C255.564 89.3413 255.98 89.288 256.279 89.288C256.577 89.288 256.812 89.4267 256.983 89.704C257.175 89.9813 257.271 90.504 257.271 91.272C257.271 91.6347 257.207 92.1787 257.079 92.904C256.972 93.608 256.897 94.2693 256.855 94.888L256.055 104.04C255.927 105.427 255.575 106.621 254.999 107.624C254.444 108.648 253.74 109.48 252.887 110.12C252.033 110.781 251.105 111.272 250.103 111.592C249.1 111.912 248.108 112.072 247.127 112.072ZM262.531 105.512C261.379 105.512 260.547 105.043 260.035 104.104C259.545 103.165 259.299 101.789 259.299 99.976C259.299 98.4187 259.513 96.9893 259.939 95.688C260.387 94.3867 261.006 93.2667 261.795 92.328C262.585 91.368 263.502 90.632 264.547 90.12C265.593 89.5867 266.723 89.32 267.939 89.32C268.686 89.32 269.422 89.448 270.147 89.704C270.894 89.9387 271.534 90.184 272.067 90.44L271.043 93.576C270.467 93.192 269.859 92.8613 269.219 92.584C268.601 92.3067 268.025 92.0933 267.491 91.944C266.979 91.7947 266.585 91.72 266.307 91.72C265.689 91.72 265.123 92.0187 264.611 92.616C264.099 93.192 263.683 94.0027 263.363 95.048C263.065 96.072 262.915 97.256 262.915 98.6C262.915 99.8373 263.001 100.776 263.171 101.416C263.363 102.056 263.662 102.376 264.067 102.376C264.409 102.376 264.931 102.067 265.635 101.448C266.361 100.808 267.193 99.752 268.131 98.28C269.091 96.808 270.094 94.8133 271.139 92.296L272.067 95.144C270.937 97.704 269.817 99.7413 268.707 101.256C267.598 102.771 266.521 103.859 265.475 104.52C264.451 105.181 263.47 105.512 262.531 105.512ZM270.979 105.32C270.745 105.32 270.542 105.192 270.371 104.936C270.201 104.659 270.073 104.328 269.987 103.944C269.902 103.56 269.859 103.208 269.859 102.888C269.859 102.355 269.945 101.747 270.115 101.064C270.307 100.381 270.542 99.5173 270.819 98.472L271.459 96.072L270.531 95.048L270.883 91.688L271.331 91.144L271.587 82.728H274.083C274.403 82.728 274.659 82.8667 274.851 83.144C275.065 83.4213 275.214 83.752 275.299 84.136C275.406 84.4987 275.459 84.8507 275.459 85.192C275.459 85.4053 275.449 85.6507 275.427 85.928C275.406 86.184 275.363 86.5467 275.299 87.016C275.235 87.464 275.139 88.0933 275.011 88.904L273.955 96.264C273.806 97.288 273.678 98.3333 273.571 99.4C273.465 100.467 273.379 101.501 273.315 102.504C273.273 103.507 273.241 104.445 273.219 105.32H270.979ZM281.948 105.512C280.306 105.512 279.036 105 278.14 103.976C277.244 102.931 276.796 101.501 276.796 99.688C276.796 98.1733 277.01 96.7867 277.436 95.528C277.863 94.2693 278.46 93.1707 279.228 92.232C279.996 91.2933 280.892 90.568 281.916 90.056C282.962 89.544 284.092 89.288 285.308 89.288C286.759 89.288 287.868 89.5973 288.636 90.216C289.404 90.8347 289.788 91.72 289.788 92.872C289.788 94.0453 289.394 95.0693 288.604 95.944C287.836 96.8187 286.716 97.5653 285.244 98.184C283.794 98.8027 282.055 99.3253 280.028 99.752L279.612 97.832C280.786 97.6827 281.863 97.4267 282.844 97.064C283.826 96.7013 284.615 96.2213 285.212 95.624C285.81 95.0053 286.108 94.28 286.108 93.448C286.108 92.872 285.991 92.4347 285.756 92.136C285.543 91.8373 285.148 91.688 284.572 91.688C283.698 91.688 282.951 92.008 282.332 92.648C281.735 93.288 281.276 94.12 280.956 95.144C280.658 96.168 280.508 97.256 280.508 98.408C280.508 99.9653 280.743 101.011 281.212 101.544C281.703 102.056 282.418 102.312 283.356 102.312C284.338 102.312 285.191 102.163 285.916 101.864C286.663 101.544 287.303 101.213 287.836 100.872C288.007 100.765 288.156 100.68 288.284 100.616C288.412 100.552 288.519 100.52 288.604 100.52C288.711 100.52 288.796 100.563 288.86 100.648C288.924 100.733 288.956 100.829 288.956 100.936C288.956 101.32 288.786 101.768 288.444 102.28C288.103 102.792 287.612 103.293 286.972 103.784C286.354 104.275 285.618 104.68 284.764 105C283.911 105.341 282.972 105.512 281.948 105.512Z" fill="#3E3B3B"/>
</svg>
